<svg xmlns="http://www.w3.org/2000/svg" viewBox="0 0 64 64">
  <rect width="64" height="64" rx="14" fill="#4B155A" />
  <g stroke="#F7EEF6" stroke-width="2.4" stroke-linecap="round" stroke-linejoin="round" fill="none">
    <path d="M14 42V22c5-3 10-3 14 0 4-3 9-3 14 0v20c-5-3-10-3-14 0-4-3-9-3-14 0Z" />
    <path d="M28 22v20" />
  </g>
  <g stroke="#C69A45" stroke-width="2.2" stroke-linecap="round">
    <path d="M32 20V9" />
    <path d="M32 12c-2.4-1-3.6-3-3.2-4.8C30.4 8 32 10 32 12Z" fill="#C69A45" />
    <path d="M32 12c2.4-1 3.6-3 3.2-4.8C33.6 8 32 10 32 12Z" fill="#C69A45" />
    <path d="M32 16c-2.6-1.1-4-3.2-3.5-5.2C30.6 11.6 32 13.8 32 16Z" fill="#C69A45" />
    <path d="M32 16c2.6-1.1 4-3.2 3.5-5.2C33.4 11.6 32 13.8 32 16Z" fill="#C69A45" />
  </g>
</svg>
